<svg xmlns="http://www.w3.org/2000/svg" viewBox="0 0 750 500"><g id="freepik--Shadow--inject-65"><ellipse cx="497.35" cy="449.49" rx="207.34" ry="13.04" style="fill:#ebebeb"></ellipse></g><g id="freepik--Floor--inject-65"><polygon points="50.72 396.8 131.79 396.55 212.86 396.46 375 396.3 537.14 396.46 618.21 396.55 699.28 396.8 618.21 397.04 537.14 397.13 375 397.3 212.86 397.13 131.79 397.04 50.72 396.8" style="fill:#263238"></polygon></g><g id="freepik--FAQs--inject-65"><path d="M118,380V202.18a16.53,16.53,0,0,1,16.57-16.58h98.54a16.73,16.73,0,0,1,0,33.45H151.42V274.2h70.21a16.73,16.73,0,0,1,0,33.45H151.42V380a16.8,16.8,0,0,1-16.88,16.58A16.53,16.53,0,0,1,118,380Z" style="fill:#4D6188"></path><path d="M118,380V202.18a16.53,16.53,0,0,1,16.57-16.58h98.54a16.73,16.73,0,0,1,0,33.45H151.42V274.2h70.21a16.73,16.73,0,0,1,0,33.45H151.42V380a16.8,16.8,0,0,1-16.88,16.58A16.53,16.53,0,0,1,118,380Z" style="opacity:0.1"></path><path d="M105.38,380V202.18A16.54,16.54,0,0,1,122,185.6H220.5a16.73,16.73,0,0,1,0,33.45H138.83V274.2h70.22a16.73,16.73,0,0,1,0,33.45H138.83V380A16.79,16.79,0,0,1,122,396.55,16.54,16.54,0,0,1,105.38,380Z" style="fill:#4D6188"></path><path d="M358.59,346.82H285.37L270.6,386a16.91,16.91,0,0,1-15.67,10.55,17.65,17.65,0,0,1-5.73-.91,17.11,17.11,0,0,1-9.94-21.7l66.6-177.49a16.86,16.86,0,0,1,16-10.55,16.58,16.58,0,0,1,16,10.55l66.6,177.49a17.1,17.1,0,0,1-9.95,21.7A16.84,16.84,0,0,1,373.36,386Zm-12.35-33.14-24.41-64.8-24.41,64.8Z" style="fill:#4D6188"></path><path d="M358.59,346.82H285.37L270.6,386a16.91,16.91,0,0,1-15.67,10.55,17.65,17.65,0,0,1-5.73-.91,17.11,17.11,0,0,1-9.94-21.7l66.6-177.49a16.86,16.86,0,0,1,16-10.55,16.58,16.58,0,0,1,16,10.55l66.6,177.49a17.1,17.1,0,0,1-9.95,21.7A16.84,16.84,0,0,1,373.36,386Zm-12.35-33.14-24.41-64.8-24.41,64.8Z" style="opacity:0.1"></path><path d="M346,346.82H272.78L258,386a16.91,16.91,0,0,1-15.67,10.55,17.65,17.65,0,0,1-5.73-.91,17.09,17.09,0,0,1-9.94-21.7l66.6-177.49a16.86,16.86,0,0,1,16-10.55,16.58,16.58,0,0,1,16,10.55l66.6,177.49a17.1,17.1,0,0,1-9.95,21.7A16.84,16.84,0,0,1,360.78,386Zm-12.35-33.14-24.41-64.8-24.41,64.8Z" style="fill:#4D6188"></path><path d="M638.51,426.38c-16.57,12.66-33.75,19-49.72,19h-.9c-21.1,0-38.88-8.43-55.15-18.08a37.75,37.75,0,0,0-18.38-4.52c-9.95,0-20.19,4.22-21.4,5.13-6,3.31-13,2.71-17.48-.91-.3-.3-.9-.3-1.81-.6-.3-.3-.3-.3-.6-.3-1.51-2.11-3.31-3.92-4.22-6.93-4.52-9-.3-19,8.14-23.21l.9-.6a132,132,0,0,1-33.45-22.9,117.94,117.94,0,0,1-30.13-78.65A115.61,115.61,0,0,1,444.44,216c19.29-20.79,45.81-33.45,75.34-33.45A99.35,99.35,0,0,1,594.51,216a111.9,111.9,0,0,1,30.74,77.75,114.13,114.13,0,0,1-30.74,78.65,116.24,116.24,0,0,1-33.44,23.8L554.13,399c12.66,6.93,24.11,10.84,33.76,10.84,8.73,0,17.17-2.1,29.53-11.45a17.34,17.34,0,0,1,24.41,3C647.85,408.9,646.65,419.75,638.51,426.38ZM470.66,348a65.58,65.58,0,0,0,49.12,21.7c19.29,0,36.46-8.14,49.72-21.7,13-13.86,20.8-32.85,20.8-54.24s-7.84-40.38-20.8-53.64c-13.26-13.87-30.43-22-49.72-22a64.76,64.76,0,0,0-49.12,22c-13,13.26-20.79,32.24-20.79,53.64S457.7,334.17,470.66,348Z" style="fill:#4D6188"></path><path d="M638.51,426.38c-16.57,12.66-33.75,19-49.72,19h-.9c-21.1,0-38.88-8.43-55.15-18.08a37.75,37.75,0,0,0-18.38-4.52c-9.95,0-20.19,4.22-21.4,5.13-6,3.31-13,2.71-17.48-.91-.3-.3-.9-.3-1.81-.6-.3-.3-.3-.3-.6-.3-1.51-2.11-3.31-3.92-4.22-6.93-4.52-9-.3-19,8.14-23.21l.9-.6a132,132,0,0,1-33.45-22.9,117.94,117.94,0,0,1-30.13-78.65A115.61,115.61,0,0,1,444.44,216c19.29-20.79,45.81-33.45,75.34-33.45A99.35,99.35,0,0,1,594.51,216a111.9,111.9,0,0,1,30.74,77.75,114.13,114.13,0,0,1-30.74,78.65,116.24,116.24,0,0,1-33.44,23.8L554.13,399c12.66,6.93,24.11,10.84,33.76,10.84,8.73,0,17.17-2.1,29.53-11.45a17.34,17.34,0,0,1,24.41,3C647.85,408.9,646.65,419.75,638.51,426.38ZM470.66,348a65.58,65.58,0,0,0,49.12,21.7c19.29,0,36.46-8.14,49.72-21.7,13-13.86,20.8-32.85,20.8-54.24s-7.84-40.38-20.8-53.64c-13.26-13.87-30.43-22-49.72-22a64.76,64.76,0,0,0-49.12,22c-13,13.26-20.79,32.24-20.79,53.64S457.7,334.17,470.66,348Z" style="opacity:0.1"></path><path d="M625.93,426.38c-16.58,12.66-33.75,19-49.72,19h-.91c-21.09,0-38.87-8.43-55.14-18.08a37.76,37.76,0,0,0-18.39-4.52c-9.94,0-20.19,4.22-21.39,5.13-6,3.31-13,2.71-17.48-.91-.3-.3-.9-.3-1.81-.6-.3-.3-.3-.3-.6-.3-1.51-2.11-3.32-3.92-4.22-6.93-4.52-9-.3-19,8.14-23.21l.9-.6a131.86,131.86,0,0,1-33.45-22.9,117.94,117.94,0,0,1-30.13-78.65A115.61,115.61,0,0,1,431.86,216c19.29-20.79,45.8-33.45,75.34-33.45A99.35,99.35,0,0,1,581.93,216a111.9,111.9,0,0,1,30.74,77.75,114.13,114.13,0,0,1-30.74,78.65,116.15,116.15,0,0,1-33.45,23.8L541.55,399c12.66,6.93,24.11,10.84,33.75,10.84,8.74,0,17.18-2.1,29.53-11.45a17.34,17.34,0,0,1,24.41,3C635.27,408.9,634.06,419.75,625.93,426.38ZM458.08,348a65.56,65.56,0,0,0,49.12,21.7c19.28,0,36.46-8.14,49.72-21.7,13-13.86,20.79-32.85,20.79-54.24s-7.83-40.38-20.79-53.64c-13.26-13.87-30.44-22-49.72-22a64.75,64.75,0,0,0-49.12,22c-13,13.26-20.8,32.24-20.8,53.64S445.12,334.17,458.08,348Z" style="fill:#4D6188"></path></g><g id="freepik--character-2--inject-65"><path d="M434.76,451.05c2.1-.87,48.59-41.38,49.39-44,.3-1-5.2-8.13-12.1-16.54-1.48-1.81-3-3.68-4.62-5.57-10.26-12.25-21.44-25-21.44-25l-31.17,27,22.3,24.29L442,416.5S431.14,440,430.58,443,432.67,451.92,434.76,451.05Z" style="fill: rgb(247, 169, 160);"></path><path d="M434.76,451.05c2.1-.87,48.59-41.38,49.39-44,.37-1.24-7.84-11.48-16.72-22.11l-30.31,26.27L442,416.5S431.14,440,430.58,443,432.67,451.92,434.76,451.05Z" style="fill:#fff"></path><path d="M434.76,451.05c2.1-.87,48.59-41.38,49.39-44,.3-1-5.2-8.13-12.1-16.54l-30,26S431.14,440,430.58,443,432.67,451.92,434.76,451.05Z" style="fill:#37474f"></path><path d="M433.81,448.61c7.63-7,39-34.42,47.11-40.74.07-.06.11,0,.05.05-7.41,7.08-39.05,34.26-47.05,40.82C433.75,448.87,433.65,448.75,433.81,448.61Z" style="fill:#263238"></path><path d="M432.12,438.71a8.29,8.29,0,0,1,6.32-2.16,8.06,8.06,0,0,1,5.36,2.64c0,.05,0,.13-.09.09a9.58,9.58,0,0,0-11.51-.47A.06.06,0,1,1,432.12,438.71Z" style="fill:#263238"></path><path d="M439.66,419.91c3.08-2.76,7.66-4.81,11.82-4,.16,0,.11.26,0,.3a56.92,56.92,0,0,0-11.51,4.08A.26.26,0,0,1,439.66,419.91Z" style="fill:#263238"></path><path d="M438.07,423c3.08-2.76,7.66-4.81,11.82-3.95.16,0,.11.26,0,.29a57.57,57.57,0,0,0-11.51,4.09A.26.26,0,0,1,438.07,423Z" style="fill:#263238"></path><path d="M436.48,426c3.08-2.76,7.66-4.81,11.82-4,.16,0,.11.27,0,.3a57.53,57.53,0,0,0-11.51,4.08A.26.26,0,0,1,436.48,426Z" style="fill:#263238"></path><path d="M434.89,429c3.08-2.76,7.66-4.81,11.82-3.95.16,0,.11.26,0,.3a56.92,56.92,0,0,0-11.51,4.08A.26.26,0,0,1,434.89,429Z" style="fill:#263238"></path><path d="M472.49,402.19c3.51-3,8.24,2.41,4.72,5.46S469,405.24,472.49,402.19Z" style="fill:#fff"></path><path d="M433.27,418.88c3.57.7,7.33-.16,10.89-.56a.5.5,0,0,0,.34-.74.12.12,0,0,0,0-.18,21.72,21.72,0,0,0-9.78-5.5c-2.16-.51-5.27-.06-5.7,2.62S431.18,418.47,433.27,418.88Zm-2.4-2.46c-2.64-3.66,2.69-3.72,4.26-3.28a22.7,22.7,0,0,1,3,1.11,64.1,64.1,0,0,1,5.78,3.09c-1.76.09-3.5.33-5.25.48C436.55,418,432.33,418.44,430.87,416.42Z" style="fill:#263238"></path><path d="M453.86,405.76c-2-1.82-4.72-.24-6.09,1.51a21.73,21.73,0,0,0-4.2,10.41.1.1,0,0,0,.12.12c.08.3.42.57.73.37,3-1.91,6.5-3.58,8.86-6.36C454.65,410.18,455.77,407.49,453.86,405.76Zm-5.44,8.57c-1.47,1-3,1.88-4.4,2.91a64,64,0,0,1,2.59-6,23.22,23.22,0,0,1,1.62-2.72c1-1.33,5.16-4.61,5.38-.1C453.74,410.88,450.17,413.17,448.42,414.33Z" style="fill:#263238"></path><path d="M380.13,339c2.92,16.67,46.29,63.3,51.3,68.65l1.15,1.22,33.05-27.71-.41-.5-31.77-38.12,89.74-4.34L488,313.13s-2.69,1.71-8.48,1.11c-19.93-2.05-64.87-6.58-75.38-5.7C390.56,309.67,377.45,323.68,380.13,339Z" style="fill:#263238"></path><path d="M422,328.33a38.87,38.87,0,0,1,3.27,3.85c1.13,1.35,2.27,2.68,3.39,4l0,0-.62-1.2c-.73-1.36-1.33-2.77-2.18-4.06-.05-.08.07-.16.12-.08.88,1.28,1.87,2.49,2.63,3.85.36.64.7,1.29,1,1.95.18.36.36.72.51,1.09a2.81,2.81,0,0,1,.22.53c.51.62,1,1.25,1.49,1.9,1.07,1.42,2,2.93,3.12,4.35.06.07-.06.15-.12.08-1.1-1.33-2.31-2.55-3.43-3.87s-2.21-2.71-3.28-4.1-2.06-2.73-3.1-4.09a41,41,0,0,1-3.14-4.2A.05.05,0,0,1,422,328.33Z" style="fill:#37474f"></path><path d="M427.66,401.13c1.88-1.74,3.9-3.35,5.88-5s4-3.24,6-4.85c4-3.22,8-6.46,12.07-9.62,2.23-1.73,4.48-3.45,6.8-5.06a.11.11,0,0,1,.13.17c-3.8,3.46-7.86,6.63-11.87,9.83s-8.05,6.42-12.12,9.57c-2.23,1.73-4.44,3.51-6.77,5.09C427.68,401.35,427.58,401.2,427.66,401.13Z" style="fill:#37474f"></path><path d="M498,263.33c-4.92,9.47-22.47,36-36.38,41.15-7.67,2.83-46.93,9.94-52.78,5.86-6.85-4.78-5-26.24-.14-27.06,14.79-2.52,42.71.07,49.39-2.34,3-1.09,18.11-13.86,34.6-24.65C498.91,252.21,501.15,257.22,498,263.33Z" style="fill: rgb(247, 169, 160);"></path><path d="M422.83,281.18s.2,32.42,1.73,31.95,34.88-4.79,43.26-9.58,21.59-24.07,29.23-36.77.36-15.41-7.72-9-30.75,21.6-32.21,21.74S422.83,281.18,422.83,281.18Z" style="fill:#455a64"></path><path d="M429.07,309.55c.17-4.38.27-8.75.19-13.13-.05-2.19-.12-4.37-.23-6.55s-.44-4.36-.52-6.54c0-.12-.2-.1-.19,0,.19,2.17.09,4.38.17,6.56s.13,4.37.18,6.56c.1,4.36.21,8.73.21,13.1C428.88,309.69,429.06,309.67,429.07,309.55Z" style="fill:#263238"></path><path d="M470.16,301.93c8.35-6.57,19.94-23.59,26.89-35.15,5.45-9,3.31-13-1.3-12.24Z" style="fill:#37474f"></path><rect x="424.26" y="311.39" width="57.78" height="2.59" style="fill:#c7c7c7"></rect><polygon points="469.67 311.39 471.65 313.98 424.25 313.98 424.25 311.39 469.67 311.39" style="fill:#a6a6a6"></polygon><polygon points="467.2 313.98 410.89 313.98 406.2 275.73 462.51 275.73 467.2 313.98" style="fill:#c7c7c7"></polygon><path d="M440.13,294.85a3.36,3.36,0,0,1-3.37,3.43,3.51,3.51,0,0,1-3.49-3.43,3.36,3.36,0,0,1,3.37-3.42A3.51,3.51,0,0,1,440.13,294.85Z" style="fill:#fff"></path><path d="M406.66,279.43c-2.12,3.28-7.36,7.11-8.08,9.92a3.31,3.31,0,0,0,1.37,3.72s-3,1.05-3.27,3.71c-.12,1.37,2,2.76,2,2.76a4,4,0,0,0-2.46,3.32c-.05,1.89,2,3,2,3s-1.88,2-1.31,3.93c1.16,3.94,17.28,6.07,20.55.46,1.53-2.61-2.44-2.92-2.44-2.92s5.81-.94,6.33-4.25-4.65-3.4-4.65-3.4,5.62-.95,5.82-4.44-5-2.83-5-2.83,3.91-2,3.45-4.66c-.76-4.47-10,.28-13.39-1Z" style="fill: rgb(247, 169, 160);"></path><path d="M398.53,306.09c-.06,0-.08.06,0,.08a28.19,28.19,0,0,0,16.74,1.2c.17,0,.17-.35,0-.33A58,58,0,0,1,398.53,306.09Z" style="fill:#263238"></path><path d="M398.56,299.56a.06.06,0,0,0,0,.11,26.37,26.37,0,0,0,18.34.18c.21-.08.31-.35.07-.28C412.84,300.83,403.69,300.69,398.56,299.56Z" style="fill:#263238"></path><path d="M417.92,292.1c-5.83,2-11.72,2-17.76,1.07-.08,0-.09.1,0,.13,2.83,1.25,6.74,1.43,9.8,1.31A16.3,16.3,0,0,0,418,292.3C418.08,292.24,418,292.06,417.92,292.1Z" style="fill:#263238"></path><path d="M476.56,325.38s64.55,9.8,64.87,9.39-9.18-69.57-31.33-80.64c-3.51-1.76-11.88-2.6-15.33,1.14C484.94,265.93,475.69,324.47,476.56,325.38Z" style="fill:#455a64"></path><path d="M477.06,319.61l63.54,8.92c-.29-1.9-.68-4.17-1.15-6.72L478,313.18C477.63,315.62,477.31,317.79,477.06,319.61Z" style="fill:#37474f"></path><path d="M478.61,309.77l60.16,8.46c-.22-1.13-.45-2.3-.71-3.5l-58.87-8.27C479,307.59,478.79,308.7,478.61,309.77Z" style="fill:#37474f"></path><path d="M497.29,267.65c3.58.15,8.46-6.21,10-10.9.1-.32-.93-3.3-2-7-.65-2.24-1.32-4.74-1.77-7.07l-13.93,6.35a38.08,38.08,0,0,1,3.13,8.68,5.51,5.51,0,0,1,.08,1,.92.92,0,0,0,0,.16C492.81,260.74,493.83,267.5,497.29,267.65Z" style="fill: rgb(247, 169, 160);"></path><path d="M489.53,249.05a37.57,37.57,0,0,1,3.13,8.68,4.74,4.74,0,0,1,.09,1,.92.92,0,0,0,0,.16,7.28,7.28,0,0,0,1.52-.21c8.46-1.82,8.84-12.81,8.79-15.77Z" style="fill:#263238"></path><path d="M502.05,223.8c2.58,4.88,2.75,20.37-.29,24.42-4.4,5.88-13.06,8-18.41,2.41-5.19-5.45-5.05-25.65-1.52-29.48C487,215.51,498.23,216.6,502.05,223.8Z" style="fill: rgb(247, 169, 160);"></path><path d="M488.9,236s.08.05.07.09c0,1,.09,2.23,1,2.58,0,0,0,.07,0,.06C488.84,238.6,488.69,237,488.9,236Z" style="fill:#263238"></path><path d="M489.83,235c1.67-.11,1.77,3.23.22,3.33S488.43,235.06,489.83,235Z" style="fill:#263238"></path><path d="M482.81,236.2s-.08.05-.08.1c.07,1,0,2.23-1,2.6a0,0,0,0,0,0,.06C482.92,238.76,483,237.17,482.81,236.2Z" style="fill:#263238"></path><path d="M481.85,235.15c-1.67-.08-1.7,3.27-.15,3.34S483.25,235.21,481.85,235.15Z" style="fill:#263238"></path><path d="M491.11,233.4a11.75,11.75,0,0,1-1.31-.42,2.24,2.24,0,0,1-1.25-.68.71.71,0,0,1,.09-.86,1.73,1.73,0,0,1,1.76-.23,2.59,2.59,0,0,1,1.52,1.07A.76.76,0,0,1,491.11,233.4Z" style="fill:#263238"></path><path d="M480.51,233.5c.46-.09.87-.25,1.32-.38a2.17,2.17,0,0,0,1.27-.65.71.71,0,0,0-.06-.86,1.76,1.76,0,0,0-1.76-.28,2.59,2.59,0,0,0-1.55,1A.76.76,0,0,0,480.51,233.5Z" style="fill:#263238"></path><path d="M490.26,245.16c-.19.29-.36.67-.72.79a2.74,2.74,0,0,1-1.14,0s-.06,0,0,.06a1.4,1.4,0,0,0,1.41.26,1.09,1.09,0,0,0,.59-1.08C490.37,245.12,490.28,245.12,490.26,245.16Z" style="fill:#263238"></path><path d="M488.87,242.22a3.57,3.57,0,0,1-2.31,1.64,4.51,4.51,0,0,1-1.27.09,3.75,3.75,0,0,1-.47,0,.27.27,0,0,1-.22-.22h0s0-2.22,0-2.22c-.29.16-1.76.87-1.75.45a53.83,53.83,0,0,1,1.06-10.72c0-.11.2-.09.19,0,0,3.33-.52,6.64-.55,10a6.27,6.27,0,0,1,1.65-.55c.07,0-.07,2.72-.06,2.74a4.91,4.91,0,0,0,3.62-1.24C488.84,242.07,488.93,242.14,488.87,242.22Z" style="fill:#263238"></path><path d="M485.61,243.77a4.4,4.4,0,0,0,1.86,1.22,2,2,0,0,0,1.21,0c.85-.3.81-1.1.59-1.77a4.55,4.55,0,0,0-.47-1A5.65,5.65,0,0,1,485.61,243.77Z" style="fill:#263238"></path><path d="M487.47,245a2,2,0,0,0,1.21,0c.85-.3.81-1.1.59-1.77A2.06,2.06,0,0,0,487.47,245Z" style="fill:#ff9cbd"></path><path d="M479.77,226.84c.52-1.39,1.14-2.78,1.94-3.09s1.43,1.66,3.3,1.7c2.51.05,3.62-2.31,7.12-2.71,5-.58,7.43,3.52,7.88,10.67.41,6.38,4.29,6.8,4.29,6.8S506,226,501.81,221.54s-13.39-6.12-19.3-1.39C480.36,221.88,479.77,226.84,479.77,226.84Z" style="fill:#263238"></path><path d="M500.79,237.64s2.56-5.44,5-4.62,1.08,8.32-1.34,9.73a2.67,2.67,0,0,1-3.77-.81Z" style="fill: rgb(247, 169, 160);"></path><path d="M505.33,235.16s.06.05,0,.07c-1.68,1.05-2.35,2.89-2.71,4.75a1.47,1.47,0,0,1,2.1-.77.06.06,0,0,1,0,.11,1.65,1.65,0,0,0-1.69.87,8,8,0,0,0-.6,1.59c-.06.17-.36.14-.33-.06v0C501.65,239.37,502.88,235.82,505.33,235.16Z" style="fill:#263238"></path><path d="M486.56,217.59a22.61,22.61,0,0,1,6.08-2.52c2.39-.55,10.11-.75,12.11.6s3.22,8.51,3.38,9.56.34,7.48-1.82,9.26-3.48-9-7.5-12.26S486.56,217.59,486.56,217.59Z" style="fill:#a6a6a6"></path><path d="M486.56,217.59s8.23,1.42,12.25,4.64,5.35,14,7.51,12.26c.94-.78,1.34-1.84,1.58-3.58-.81-3.12-2.6-7.9-5.59-11-2.8-2.94-7.22-4.11-11.82-4.16A25.72,25.72,0,0,0,486.56,217.59Z" style="opacity:0.1"></path><path d="M506.34,241c-.5-2.87-4.23-10.3-7.77-14.42s-12.86-5.77-14.12-5.57c-3.05.49-3.58,2-4.09,1.81s2.2-4,3-4.64a9.89,9.89,0,0,1,4.14-1.5c1.34-.11,9.67-.14,13,3.07s8.61,12.62,8.09,15.22c-.12.63-.89,1.1-1.05,2-.23,1.16-.33,2.49-.59,3.31C506.77,240.92,506.39,241.24,506.34,241Z" style="fill:#a6a6a6"></path><path d="M497.66,224.66a15.41,15.41,0,0,0,1.85-1.67,11.34,11.34,0,0,0,1.52-2,0,0,0,0,1,.09,0,8.2,8.2,0,0,1-1.35,2.21,6.75,6.75,0,0,1-2,1.57C497.66,224.84,497.59,224.71,497.66,224.66Z" style="fill:#263238"></path><path d="M506.08,238.1a5.5,5.5,0,0,1,.25-.63,3.67,3.67,0,0,0,.2-.74,6.29,6.29,0,0,1,.18-1.43,5,5,0,0,1,.58-1,2,2,0,0,0,.45-1.24c0-.06.09-.07.09,0a4.85,4.85,0,0,1-.74,2.34,9.69,9.69,0,0,0-.24,1.54,2.21,2.21,0,0,1-.64,1.28S506.05,238.18,506.08,238.1Z" style="fill:#263238"></path><path d="M504.76,235.08c.24-.36.5-.68.71-1.06a9.81,9.81,0,0,0,.51-1.15c.14-.38.26-.78.39-1.17s.38-.9.52-1.36c0-.06.11,0,.09,0-.14.49-.21,1-.33,1.48a10.68,10.68,0,0,1-.43,1.24,6.5,6.5,0,0,1-.58,1.11,3.36,3.36,0,0,1-.84.92S504.74,235.11,504.76,235.08Z" style="fill:#263238"></path><path d="M503.42,232.36a8.32,8.32,0,0,0,1.39-1.93c.35-.7.66-1.41,1-2.13a0,0,0,0,1,.09,0,10.29,10.29,0,0,1-.77,2.29,5.41,5.41,0,0,1-.64,1,5.52,5.52,0,0,1-1,.83A.05.05,0,0,1,503.42,232.36Z" style="fill:#263238"></path><path d="M502,229.78a2.93,2.93,0,0,0,.68-.85c.22-.35.43-.71.63-1.07s.38-.69.57-1a2.81,2.81,0,0,0,.41-1.12.05.05,0,0,1,.1,0,2.93,2.93,0,0,1-.22,1.17,7.49,7.49,0,0,1-.54,1.19,8.79,8.79,0,0,1-.7,1.09,1.87,1.87,0,0,1-.87.73A.06.06,0,0,1,502,229.78Z" style="fill:#263238"></path><path d="M500.82,226.43c.24-.29.48-.58.7-.88s.41-.63.61-1,.42-.67.6-1a0,0,0,0,1,.09,0,7.44,7.44,0,0,1-.42,1.11,9.12,9.12,0,0,1-.6,1,8.89,8.89,0,0,1-.71.91,3,3,0,0,1-.87.76c-.05,0-.12,0-.09-.09A5.35,5.35,0,0,1,500.82,226.43Z" style="fill:#263238"></path><path d="M495.28,223.24c.24-.38.49-.76.77-1.12a13,13,0,0,1,.93-1,12,12,0,0,1,2.09-1.74s.1,0,.06.07c-1.24,1.31-2.54,2.57-3.78,3.89C495.31,223.35,495.24,223.3,495.28,223.24Z" style="fill:#263238"></path><path d="M493.27,221a5.83,5.83,0,0,1,.89-1,13,13,0,0,1,2.33-1.63c.06,0,.11,0,.06.07-.7.58-1.4,1.14-2.07,1.76a10.54,10.54,0,0,0-.94.95c-.3.34-.51.73-.79,1.08a0,0,0,0,1-.06,0A3.47,3.47,0,0,1,493.27,221Z" style="fill:#263238"></path><path d="M490.75,220.06a7,7,0,0,1,2.8-2.47c.05,0,.09,0,0,.08a15.07,15.07,0,0,0-1.84,1.65c-.28.3-.55.61-.82.93a12.37,12.37,0,0,1-.79,1s-.06,0-.05,0A7.47,7.47,0,0,1,490.75,220.06Z" style="fill:#263238"></path><path d="M488.87,218.8c.28-.28.57-.54.86-.8a3.71,3.71,0,0,1,.95-.67c.05,0,.08,0,0,.09-.54.53-1.07,1.07-1.6,1.61a10.63,10.63,0,0,0-1.19,1.73,0,0,0,0,1-.06,0A3.71,3.71,0,0,1,488.87,218.8Z" style="fill:#263238"></path><path d="M486.65,218.56a6.2,6.2,0,0,1,1.81-1.4s.09.06,0,.08a7.4,7.4,0,0,0-1.61,1.5,9.89,9.89,0,0,0-1.21,1.86,0,0,0,0,1-.07,0A5.06,5.06,0,0,1,486.65,218.56Z" style="fill:#263238"></path><path d="M483.94,220.15a4,4,0,0,1,.21-.47,4.8,4.8,0,0,1,.56-.85,10.2,10.2,0,0,1,1.51-1.43s.11,0,.06.08a8,8,0,0,0-1.4,1.45,5.62,5.62,0,0,0-.54.83c-.08.14-.15.29-.22.44a2.11,2.11,0,0,1-.2.43s-.08,0-.08,0A1.46,1.46,0,0,1,483.94,220.15Z" style="fill:#263238"></path><path d="M482.22,220.48a5.7,5.7,0,0,1,.47-.7,4.69,4.69,0,0,1,.54-.64c.2-.21.4-.41.59-.62s.12,0,.07.06a7,7,0,0,0-.55.67l-.48.66-.47.66c-.16.23-.3.48-.48.69a0,0,0,0,1-.07,0A4,4,0,0,1,482.22,220.48Z" style="fill:#263238"></path><path d="M492.23,261.23a0,0,0,0,1,0,0c0,2.93.2,9.7,4.75,9a9.74,9.74,0,0,0,4.76-2.75,25.81,25.81,0,0,0,3.63-4.18,38.45,38.45,0,0,0,3.29-5.28c0-.08.16,0,.12.07-1,1.85-1.76,3.76-2.91,5.52a22.43,22.43,0,0,1-3.91,4.61,9.6,9.6,0,0,1-5.08,2.72A3.7,3.7,0,0,1,493,268.4,16.43,16.43,0,0,1,492.23,261.23Z" style="fill:#263238"></path><path d="M518.35,269.05c4.38,24.84.15,43.44-4.07,45.74-11.36,6.21-38.63-6.37-46.33-8.87-3.11-1,11.07-24.8,14.24-23.33,7.48,3.45,18,9.32,18.38,9.28.84-.09,1.83-6.43,6.17-24.9C510.25,252,516.56,258.89,518.35,269.05Z" style="fill: rgb(247, 169, 160);"></path><path d="M443.16,270.82c-.78,3.12,7.07,4.39,7.07,4.39a5.93,5.93,0,0,0-3.11,2.57c-1.14,2.16,1.74,4.9,1.74,4.9a7.33,7.33,0,0,0-2.85,3.23c-.88,2.18,1.64,5.36,1.64,5.36a6.35,6.35,0,0,0-.72,4.42c1,4,7.1,5.58,10.71,7.31,3.86,1.85,10.26,2.53,13.16,3.83l12.58-23S471.23,270.94,464.3,269C460.45,267.84,444.35,266.05,443.16,270.82Z" style="fill: rgb(247, 169, 160);"></path><path d="M450.32,275.14a53.49,53.49,0,0,1,13,1.53c.09,0,.06.17,0,.15-4.21-.92-8.77-.73-13-1.48A.1.1,0,0,1,450.32,275.14Z" style="fill:#263238"></path><path d="M449.05,282.39a11.38,11.38,0,0,1,2.94.54c1,.27,2,.55,3.05.85q3,.89,6,1.94c.09,0,.06.17,0,.15-2-.6-4.06-1.16-6.11-1.66-1-.25-2.05-.5-3.08-.73a14.15,14.15,0,0,1-2.88-.81A.15.15,0,0,1,449.05,282.39Z" style="fill:#263238"></path><path d="M447.73,291.29a8.1,8.1,0,0,1,2.62.63l2.76.86c1.84.56,3.69,1.12,5.55,1.62a.07.07,0,1,1,0,.14c-1.89-.49-3.8-1-5.69-1.47l-2.78-.77a7.31,7.31,0,0,1-2.46-.92A.05.05,0,0,1,447.73,291.29Z" style="fill:#263238"></path><path d="M500.57,291.87c-3.12-1.45-6.19-3-9.28-4.48l-4.6-2.29L484.38,284c-.76-.35-1.58-.78-2.27-1l-.12,0-.05-.06c-2-2-4-3.92-6.07-5.86-1-1-2.08-1.9-3.14-2.82a28.71,28.71,0,0,0-3.32-2.59A24.3,24.3,0,0,1,473,273.9c1.12.86,2.2,1.76,3.28,2.68,2.15,1.83,4.19,3.79,6.22,5.75l-.18-.09a19.51,19.51,0,0,1,2.43,1.07l2.3,1.16,4.58,2.38C494.6,288.48,497.61,290.12,500.57,291.87Z" style="fill:#263238"></path><path d="M484.32,282.05l-13.68,28s37,15.11,44.09,6.91,6.84-35.64,3.52-50.66-10.63-7.73-12.27.56-4.67,24.13-5.41,23.94S484.32,282.05,484.32,282.05Z" style="fill:#455a64"></path><path d="M488.24,287.14c-2,3.6-3.95,7.21-5.74,10.92-.9,1.85-1.76,3.72-2.6,5.59s-1.48,3.85-2.34,5.7a.09.09,0,1,0,.16.07c.76-1.9,1.79-3.71,2.66-5.57s1.74-3.72,2.63-5.58c1.77-3.7,3.54-7.41,5.4-11.07C488.46,287.1,488.3,287,488.24,287.14Z" style="fill:#263238"></path><path d="M483.76,283.19c.16-.4.3-.8.47-1.19l0-.09.1,0c2,.92,4,1.93,6,2.92s3.94,2.06,5.89,3.13,3.89,2.16,5.8,3.31,3.82,2.29,5.68,3.53c-2-.89-4-1.87-6-2.87s-4-2-5.92-3.09-3.9-2.16-5.82-3.27-3.84-2.27-5.71-3.48l.14-.05C484.2,282.46,484,282.82,483.76,283.19Z" style="fill:#263238"></path><path d="M504.7,273.31a59.13,59.13,0,0,1-1.26,8.92c-.32,1.47-.67,2.93-1.11,4.38a14.13,14.13,0,0,1-1.76,4.16,10.68,10.68,0,0,0,.58-2.15l.43-2.2c.27-1.47.58-2.93.88-4.39C503.1,279.1,503.77,276.19,504.7,273.31Z" style="fill:#263238"></path><path d="M503.06,274.52c.09.86.12,1.7.19,2.53,0,.42.07.84.09,1.25s.1.84.15,1.27a5.19,5.19,0,0,1-.74-2.48A6.59,6.59,0,0,1,503.06,274.52Z" style="fill:#263238"></path><path d="M520,278.51a103.16,103.16,0,0,1,.65,10.54,95.77,95.77,0,0,1-.4,10.57A52.13,52.13,0,0,1,518.35,310a23.56,23.56,0,0,1-2.12,4.89,8.47,8.47,0,0,1-3.84,3.58,8.72,8.72,0,0,0,3.42-3.82,23,23,0,0,0,1.8-4.86,51.92,51.92,0,0,0,1-5.11c.28-1.72.49-3.46.65-5.2.34-3.48.5-7,.62-10.48.06-1.75.09-3.5.1-5.26S520,280.27,520,278.51Z" style="fill:#263238"></path><path d="M520.81,280.73a4.82,4.82,0,0,1,.09,1.85,4.17,4.17,0,0,1-.64,1.75,13.42,13.42,0,0,1,.14-1.82A9,9,0,0,1,520.81,280.73Z" style="fill:#263238"></path><path d="M307.69,402c.88,2.1,41.54,48.46,44.21,49.25,1,.3,8.1-5.23,16.49-12.15,1.81-1.49,3.67-3,5.55-4.64,12.23-10.3,25-21.52,25-21.52l-27.11-31.09-24.21,22.38-5.32,4.91s-23.5-10.79-26.52-11.34S306.82,399.9,307.69,402Z" style="fill: rgb(247, 169, 160);"></path><path d="M307.69,402c.88,2.1,41.54,48.46,44.21,49.25,1.23.36,11.45-7.87,22-16.79l-26.36-30.23-5.32,4.91s-23.5-10.79-26.52-11.34S306.82,399.9,307.69,402Z" style="fill:#fff"></path><path d="M307.69,402c.88,2.1,41.54,48.46,44.21,49.25,1,.3,8.1-5.23,16.49-12.15l-26.13-30s-23.5-10.79-26.52-11.34S306.82,399.9,307.69,402Z" style="fill:#37474f"></path><path d="M310.13,401c7,7.61,34.55,38.94,40.9,47,.05.06,0,.1,0,0-7.11-7.39-34.4-38.94-41-46.92C309.87,401,310,400.87,310.13,401Z" style="fill:#263238"></path><path d="M320,399.31a8.25,8.25,0,0,1,2.18,6.31,8,8,0,0,1-2.62,5.38c-.05,0-.13-.05-.08-.1a9.61,9.61,0,0,0,.43-11.51C319.88,399.33,320,399.25,320,399.31Z" style="fill:#263238"></path><path d="M338.85,406.79c2.77,3.07,4.83,7.64,4,11.81,0,.16-.27.11-.3,0a57.57,57.57,0,0,0-4.12-11.5A.26.26,0,0,1,338.85,406.79Z" style="fill:#263238"></path><path d="M335.81,405.21c2.77,3.07,4.83,7.64,4,11.81,0,.16-.26.11-.29,0a57.57,57.57,0,0,0-4.12-11.5A.26.26,0,0,1,335.81,405.21Z" style="fill:#263238"></path><path d="M332.76,403.63c2.78,3.07,4.84,7.64,4,11.8,0,.17-.26.12-.29,0a57,57,0,0,0-4.13-11.5A.26.26,0,0,1,332.76,403.63Z" style="fill:#263238"></path><path d="M329.72,402.05c2.77,3.07,4.84,7.64,4,11.8,0,.17-.26.12-.3,0a57,57,0,0,0-4.12-11.5A.26.26,0,0,1,329.72,402.05Z" style="fill:#263238"></path><path d="M356.67,439.56c3.05,3.5-2.38,8.25-5.44,4.74S353.61,436.06,356.67,439.56Z" style="fill:#fff"></path><path d="M339.86,400.4c-.7,3.57.18,7.33.59,10.88a.51.51,0,0,0,.75.34.1.1,0,0,0,.17,0,21.69,21.69,0,0,0,5.48-9.8c.5-2.16,0-5.26-2.65-5.69C341.66,395.74,340.26,398.31,339.86,400.4Zm2.45-2.41c3.65-2.66,3.73,2.68,3.3,4.25a23.59,23.59,0,0,1-1.1,3,62.86,62.86,0,0,1-3.08,5.79c-.09-1.76-.33-3.49-.49-5.25C340.75,403.67,340.29,399.46,342.31,398Z" style="fill:#263238"></path><path d="M353,421c1.82-2,.23-4.73-1.53-6.09a21.72,21.72,0,0,0-10.42-4.17.11.11,0,0,0-.12.13.5.5,0,0,0-.37.73c1.92,3,3.6,6.49,6.39,8.83C348.62,421.75,351.32,422.86,353,421Zm-8.59-5.42c-1-1.46-1.88-3-2.92-4.39a65.54,65.54,0,0,1,6,2.57,24.21,24.21,0,0,1,2.73,1.62c1.33.95,4.63,5.14.11,5.38C347.92,420.84,345.62,417.28,344.45,415.53Z" style="fill:#263238"></path><path d="M348.72,399.31l28.32,35,87.72-66.56,8.46-6.42s2.54,1.55,6.34,3.45c5.28,2.63,13,5.92,19.73,6.62,11.29,1.19,28.2.29,37.12-12.76,7.51-11,4.41-24.77,4.41-24.77l-12.55-4.77s-30.18-23.05-49.1-23c-8,0-19.46,6.6-30,13.41S348.72,399.31,348.72,399.31Z" style="fill:#263238"></path><path d="M473.22,361.33s2.54,1.55,6.34,3.45c6.23-8.14,19.53-23,19.93-23.54Z" style="fill:#37474f"></path><path d="M517.25,321.42c1.79,1.14,3.53,2.35,5.3,3.52s3.54,2.23,5.21,3.49,3.3,2.67,4.9,4.07c.77.67,1.54,1.35,2.29,2.05a21.66,21.66,0,0,1,2.2,2.19c.06.08,0,.17-.13.13a24.74,24.74,0,0,1-2.41-1.8c-.85-.65-1.68-1.32-2.53-2-1.62-1.27-3.27-2.49-4.89-3.76s-3.11-2.66-4.71-3.94-3.5-2.63-5.27-3.92C517.18,321.46,517.21,321.4,517.25,321.42Z" style="fill:#37474f"></path><path d="M355,397.74c1.82,1.8,3.52,3.75,5.22,5.67s3.42,3.84,5.11,5.78c3.38,3.88,6.79,7.73,10.12,11.66,1.83,2.15,3.63,4.32,5.35,6.57.07.1-.09.23-.17.14-3.62-3.65-6.95-7.57-10.33-11.45s-6.75-7.77-10.08-11.7c-1.81-2.15-3.69-4.29-5.37-6.55C354.73,397.77,354.88,397.66,355,397.74Z" style="fill:#37474f"></path><path d="M423.74,398.77c4.34-3.74,14.27-11.09,18.79-14.61s9-7,13.57-10.43c1.31-1,2.64-1.94,4-2.9s2.7-1.86,4-2.85c.08-.06.15.07.08.12-1.18.93-2.3,2-3.46,2.93s-2.21,1.84-3.33,2.75c-2.19,1.77-4.4,3.5-6.61,5.25q-6.71,5.3-13.55,10.45c-2.59,1.94-10.58,7.7-13.23,9.56C423.79,399.15,423.59,398.9,423.74,398.77Z" style="fill:#37474f"></path><path d="M393.79,362.64c4-3.63,13.2-10.65,17.42-14s8.51-6.84,12.8-10.23l12.76-10.07c4.12-3.26,8.22-6.56,12.6-9.48,2.4-1.59,4.86-3.08,7.4-4.43a48.56,48.56,0,0,1,7.69-3.53.07.07,0,0,1,.06.13c-2.17,1.33-4.45,2.47-6.64,3.76s-4.29,2.61-6.38,4c-4.35,2.89-8.43,6.14-12.53,9.37-8.52,6.69-17,13.41-25.6,20-4.8,3.7-14.37,11.32-19.37,14.75C393.84,363,393.65,362.76,393.79,362.64Z" style="fill:#37474f"></path></g><g id="freepik--speech-bubble--inject-65"><polygon points="258.15 152.08 472.04 152.08 472.04 84.92 258.15 84.92 258.15 84.92 258.15 152.08 258.15 152.08" style="fill:#455a64"></polygon><polygon points="472.04 176.84 472.04 152.05 446.23 152.05 472.04 176.84" style="fill:#455a64"></polygon><rect x="271.65" y="96.53" width="148.33" height="1.28" style="fill:#fff"></rect><rect x="271.65" y="103.42" width="117.55" height="1.28" style="fill:#fff"></rect><rect x="271.65" y="117.21" width="136.14" height="1.28" style="fill:#fff"></rect><rect x="271.65" y="124.1" width="148.33" height="1.28" style="fill:#fff"></rect><rect x="271.65" y="130.99" width="148.33" height="1.28" style="fill:#fff"></rect><rect x="271.65" y="137.88" width="107.25" height="1.28" style="fill:#fff"></rect><path d="M437.83,125.34a13.48,13.48,0,0,1,.95-5.21,8.6,8.6,0,0,1,3.91-4c.59-.36,1.32-.76,2.19-1.22a17.66,17.66,0,0,0,2.55-1.63,9.46,9.46,0,0,0,2.11-2.22,5.16,5.16,0,0,0,.86-2.94,4.77,4.77,0,0,0-.48-2.19,4.92,4.92,0,0,0-1.24-1.6,5.2,5.2,0,0,0-1.81-1,6.89,6.89,0,0,0-2.11-.33,6,6,0,0,0-2.37.45,7.93,7.93,0,0,0-1.92,1.12,9,9,0,0,0-1.54,1.55,14.3,14.3,0,0,0-1.16,1.63l-5.16-3.56a11.4,11.4,0,0,1,2.05-3.26,12.37,12.37,0,0,1,2.9-2.4A13.46,13.46,0,0,1,441.09,97a15,15,0,0,1,3.91-.51,15.71,15.71,0,0,1,4.45.65,11.39,11.39,0,0,1,3.94,2.08,10.83,10.83,0,0,1,2.85,3.64,12,12,0,0,1,1.09,5.31,11.33,11.33,0,0,1-.44,3.35,9.24,9.24,0,0,1-1.28,2.64,10.93,10.93,0,0,1-1.95,2.13,20.93,20.93,0,0,1-2.55,1.84c-.79.48-1.58.93-2.37,1.36a14.69,14.69,0,0,0-2.17,1.46,7,7,0,0,0-1.6,1.84,4.84,4.84,0,0,0-.62,2.51Zm.12,13.82V131h6.58v8.18Z" style="fill:#fff"></path></g></svg>