<svg id="Layer_1" data-name="Layer 1" xmlns="http://www.w3.org/2000/svg" viewBox="0 0 207.97 104.1"><defs><style>.cls-1{fill:none;stroke:#000;stroke-miterlimit:10;stroke-width:0.75px;}</style></defs><path d="M42,23.63c-.74-5.29-5.1-8.43-11.27-8.43C24,15.2,19,19.71,19,28.82c0,7.3,5.05,12.35,12.3,12.35,7.64,0,10.19-5.2,10.78-8.87H50c-1,7-5.58,14.36-20,14.36-12.64,0-18.66-8.63-18.66-18.48S17.09,9.71,30.85,9.71c12.06,0,18.33,6.37,19.11,13.92Z"/><path d="M53.94,28.18c0-9.84,5.78-18.47,20.57-18.47s20.58,8.63,20.58,18.47S89.31,46.66,74.51,46.66,53.94,38,53.94,28.18Zm33.51,0c0-7.69-4.7-13-12.94-13s-12.93,5.29-12.93,13,4.7,13,12.93,13S87.45,35.88,87.45,28.18Z"/><path d="M27.83,56.43c5.39,0,16.17,1,17.1,11.12H37c-.25-2.69-2.69-5.63-8.82-5.63-4.9,0-8.13,1.52-8.13,4.8C20,75,46.1,67.06,46.1,82c0,9-9.36,11.36-16.8,11.36-12.59,0-17.64-5-17.74-12.3H19.5c.2,4.61,4,6.81,10,6.81,4.46,0,8.63-1.32,8.63-5.14,0-8.67-25.78-1.13-25.78-15.48C12.39,59.47,19.3,56.43,27.83,56.43Z"/><path d="M50.57,57.41H72.12c8.58,0,11.37,5.24,11.37,10.88,0,5.34-3.38,10.78-11.27,10.78H57.91V92.39H50.57Zm7.34,16.17H69.72c4.17,0,6.42-1.13,6.42-5.29,0-4.32-3-5.39-5.88-5.39H57.91Z"/><path d="M98.44,57.41h8.72l15.58,35h-8.18l-3.68-8.67H94.42l-3.63,8.67H82.86Zm10.24,20.82-6-14.75L96.62,78.23Z"/><path d="M154.64,70.34c-.74-5.29-5.1-8.42-11.27-8.42-6.76,0-11.81,4.5-11.81,13.62,0,7.3,5.05,12.34,12.3,12.34,7.64,0,10.19-5.19,10.78-8.86h7.94c-1,7-5.59,14.35-20,14.35-12.64,0-18.66-8.62-18.66-18.47s5.78-18.47,19.55-18.47c12.05,0,18.32,6.37,19.11,13.91Z"/><path d="M168.51,57.41h30.38V62.9h-23v8.82H198V77.2H175.86v9.7h23.42v5.49H168.51Z"/><polygon class="cls-1" points="180.69 47.69 198.57 35.24 193.38 17.35 175.8 10.32 109.45 14.29 101.81 27.44 105.48 42.88 112.51 47.69 180.69 47.69"/><line class="cls-1" x1="109.45" y1="14.29" x2="180.69" y2="47.69"/><line class="cls-1" x1="112.76" y1="47.94" x2="101.81" y2="27.44"/><line class="cls-1" x1="105.48" y1="42.88" x2="175.8" y2="10.32"/><line class="cls-1" x1="193.38" y1="17.35" x2="180.69" y2="47.69"/><line class="cls-1" x1="198.45" y1="35.15" x2="101.81" y2="27.13"/><polyline points="134.08 29.38 138.27 27.69 143.56 30.28 134.15 29.82 134.08 29.31"/><polygon points="102.41 29.18 109.15 41.18 105.42 42.64 102.41 29.18"/><polyline points="193.52 17.86 198.69 34.95 186.42 33.98 193.38 17.86 193.5 17.78"/></svg>